<svg width="100%" height="100%" style="position: fixed; top:0; left:0; z-index: 1000;" viewBox="50 250 1000 750" xmlns="http://www.w3.org/2000/svg">
  <g fill="#ff6100" transform="scale(4 4)">
		<path d="M18,57.2c0,8.2-1.9,14.4-9.3,20.2l-8.1-6.8c4.2-4,5.6-7,5.7-11.9l-6.5,0V40.3h18.2V57.2z" />
	  <rect x="0" y="9.8" width="18" height="18.3" />
        <animateMotion dur="20s" values="824,271; 619,383; 12,245; 220,700; 220,1000;" repeatCount="1" restart="always"/>
  </g>
  <g fill="#fb6230" transform="scale(4 4)">
		<path d="M18,57.2c0,8.2-1.9,14.4-9.3,20.2l-8.1-6.8c4.2-4,5.6-7,5.7-11.9l-6.5,0V40.3h18.2V57.2z" />
	  <rect x="0" y="9.8" width="18" height="18.3" />
        <animateMotion dur="20s" values="93,154; 301,465; 35,116; 240,700; 240,1000;" repeatCount="1" restart="always"/>
  </g>
  <g fill="#f76345" transform="scale(4 4)">
		<path d="M18,57.2c0,8.2-1.9,14.4-9.3,20.2l-8.1-6.8c4.2-4,5.6-7,5.7-11.9l-6.5,0V40.3h18.2V57.2z" />
	  <rect x="0" y="9.8" width="18" height="18.3" />
        <animateMotion dur="20s" values="118,632; 960,108; 122,26; 260,700; 260,1000;" repeatCount="1" restart="always"/>
  </g>
  <g fill="#f46354" transform="scale(4 4)">
		<path d="M18,57.2c0,8.2-1.9,14.4-9.3,20.2l-8.1-6.8c4.2-4,5.6-7,5.7-11.9l-6.5,0V40.3h18.2V57.2z" />
	  <rect x="0" y="9.8" width="18" height="18.3" />
        <animateMotion dur="20s" values="442,123; 734,232; 812,111; 280,700; 280,1000;" repeatCount="1" restart="always"/>
  </g>
  <g fill="#f06461" transform="scale(4 4)">
		<path d="M18,57.2c0,8.2-1.9,14.4-9.3,20.2l-8.1-6.8c4.2-4,5.6-7,5.7-11.9l-6.5,0V40.3h18.2V57.2z" />
	  <rect x="0" y="9.8" width="18" height="18.3" />
        <animateMotion dur="20s" values="710,329; 642,88; 106,655; 300,700; 300,1000;" repeatCount="1" restart="always"/>
  </g>
  <g fill="#ec656b" transform="scale(4 4)">
		<path d="M18,57.2c0,8.2-1.9,14.4-9.3,20.2l-8.1-6.8c4.2-4,5.6-7,5.7-11.9l-6.5,0V40.3h18.2V57.2z" />
	  <rect x="0" y="9.8" width="18" height="18.3" />
        <animateMotion dur="20s" values="631,28; 552,192; 682,512; 320,700; 320,1000;" repeatCount="1" restart="always"/>
  </g>
  <g fill="#e86575" transform="scale(4 4)">
		<path d="M18,57.2c0,8.2-1.9,14.4-9.3,20.2l-8.1-6.8c4.2-4,5.6-7,5.7-11.9l-6.5,0V40.3h18.2V57.2z" />
	  <rect x="0" y="9.8" width="18" height="18.3" />
        <animateMotion dur="20s" values="573,109; 817,131; 660,684; 340,700; 340,1000;" repeatCount="1" restart="always"/>
  </g>
  <g fill="#e3667e" transform="scale(4 4)">
		<path d="M18,57.2c0,8.2-1.9,14.4-9.3,20.2l-8.1-6.8c4.2-4,5.6-7,5.7-11.9l-6.5,0V40.3h18.2V57.2z" />
	  <rect x="0" y="9.8" width="18" height="18.3" />
        <animateMotion dur="20s" values="297,213; 923,498; 8,714; 360,700; 360,1000;" repeatCount="1" restart="always"/>
  </g>
  <g fill="#df6786" transform="scale(4 4)">
		<path d="M18,57.2c0,8.2-1.9,14.4-9.3,20.2l-8.1-6.8c4.2-4,5.6-7,5.7-11.9l-6.5,0V40.3h18.2V57.2z" />
	  <rect x="0" y="9.8" width="18" height="18.3" />
        <animateMotion dur="20s" values="279,507; 612,517; 723,295; 380,700; 380,1000;" repeatCount="1" restart="always"/>
  </g>
  <g fill="#da678d" transform="scale(4 4)">
		<path d="M18,57.2c0,8.2-1.9,14.4-9.3,20.2l-8.1-6.8c4.2-4,5.6-7,5.7-11.9l-6.5,0V40.3h18.2V57.2z" />
	  <rect x="0" y="9.8" width="18" height="18.3" />
        <animateMotion dur="20s" values="584,570; 745,569; 142,618; 400,700; 400,1000;" repeatCount="1" restart="always"/>
  </g>
  <g fill="#d66894" transform="scale(4 4)">
		<path d="M18,57.2c0,8.2-1.9,14.4-9.3,20.2l-8.1-6.8c4.2-4,5.6-7,5.7-11.9l-6.5,0V40.3h18.2V57.2z" />
	  <rect x="0" y="9.8" width="18" height="18.3" />
        <animateMotion dur="20s" values="935,207; 594,32; 318,132; 420,700; 420,1000;" repeatCount="1" restart="always"/>
  </g>
  <g fill="#d1699b" transform="scale(4 4)">
		<path d="M18,57.2c0,8.2-1.9,14.4-9.3,20.2l-8.1-6.8c4.2-4,5.6-7,5.7-11.9l-6.5,0V40.3h18.2V57.2z" />
	  <rect x="0" y="9.8" width="18" height="18.3" />
        <animateMotion dur="20s" values="177,546; 399,187; 689,625; 440,700; 440,1000;" repeatCount="1" restart="always"/>
  </g>
  <g fill="#cc69a1" transform="scale(4 4)">
		<path d="M18,57.2c0,8.2-1.9,14.4-9.3,20.2l-8.1-6.8c4.2-4,5.6-7,5.7-11.9l-6.5,0V40.3h18.2V57.2z" />
	  <rect x="0" y="9.8" width="18" height="18.3" />
        <animateMotion dur="20s" values="245,183; 397,541; 521,432; 460,700; 460,1000;" repeatCount="1" restart="always"/>
  </g>
  <g fill="#c76aa7" transform="scale(4 4)">
		<path d="M18,57.2c0,8.2-1.9,14.4-9.3,20.2l-8.1-6.8c4.2-4,5.6-7,5.7-11.9l-6.5,0V40.3h18.2V57.2z" />
	  <rect x="0" y="9.8" width="18" height="18.3" />
        <animateMotion dur="20s" values="662,604; 174,368; 93,458; 480,700; 480,1000;" repeatCount="1" restart="always"/>
  </g>
  <g fill="#c26aad" transform="scale(4 4)">
		<path d="M18,57.2c0,8.2-1.9,14.4-9.3,20.2l-8.1-6.8c4.2-4,5.6-7,5.7-11.9l-6.5,0V40.3h18.2V57.2z" />
	  <rect x="0" y="9.8" width="18" height="18.3" />
        <animateMotion dur="20s" values="76,549; 442,557; 244,651; 500,700; 500,1000;" repeatCount="1" restart="always"/>
  </g>
  <g fill="#bd6bb2" transform="scale(4 4)">
		<path d="M18,57.2c0,8.2-1.9,14.4-9.3,20.2l-8.1-6.8c4.2-4,5.6-7,5.7-11.9l-6.5,0V40.3h18.2V57.2z" />
	  <rect x="0" y="9.8" width="18" height="18.3" />
        <animateMotion dur="20s" values="9,427; 644,63; 156,235; 520,700; 520,1000;" repeatCount="1" restart="always"/>
  </g>
  <g fill="#b76cb7" transform="scale(4 4)">
		<path d="M18,57.2c0,8.2-1.9,14.4-9.3,20.2l-8.1-6.8c4.2-4,5.6-7,5.7-11.9l-6.5,0V40.3h18.2V57.2z" />
	  <rect x="0" y="9.8" width="18" height="18.3" />
        <animateMotion dur="20s" values="420,533; 616,389; 277,387; 540,700; 540,1000;" repeatCount="1" restart="always"/>
  </g>
  <g fill="#b16cbc" transform="scale(4 4)">
		<path d="M18,57.2c0,8.2-1.9,14.4-9.3,20.2l-8.1-6.8c4.2-4,5.6-7,5.7-11.9l-6.5,0V40.3h18.2V57.2z" />
	  <rect x="0" y="9.8" width="18" height="18.3" />
        <animateMotion dur="20s" values="843,107; 372,639; 965,680; 560,700; 560,1000;" repeatCount="1" restart="always"/>
  </g>
  <g fill="#ab6dc1" transform="scale(4 4)">
		<path d="M18,57.2c0,8.2-1.9,14.4-9.3,20.2l-8.1-6.8c4.2-4,5.6-7,5.7-11.9l-6.5,0V40.3h18.2V57.2z" />
	  <rect x="0" y="9.8" width="18" height="18.3" />
        <animateMotion dur="20s" values="706,607; 999,432; 221,638; 580,700; 580,1000;" repeatCount="1" restart="always"/>
  </g>
  <g fill="#a56dc6" transform="scale(4 4)">
		<path d="M18,57.2c0,8.2-1.9,14.4-9.3,20.2l-8.1-6.8c4.2-4,5.6-7,5.7-11.9l-6.5,0V40.3h18.2V57.2z" />
	  <rect x="0" y="9.8" width="18" height="18.3" />
        <animateMotion dur="20s" values="95,655; 599,298; 971,456; 600,700; 600,1000;" repeatCount="1" restart="always"/>
  </g>
  <g fill="#9e6eca" transform="scale(4 4)">
		<path d="M18,57.2c0,8.2-1.9,14.4-9.3,20.2l-8.1-6.8c4.2-4,5.6-7,5.7-11.9l-6.5,0V40.3h18.2V57.2z" />
	  <rect x="0" y="9.8" width="18" height="18.3" />
        <animateMotion dur="20s" values="906,442; 226,22; 174,24; 620,700; 620,1000;" repeatCount="1" restart="always"/>
  </g>
  <g fill="#976fcf" transform="scale(4 4)">
		<path d="M18,57.2c0,8.2-1.9,14.4-9.3,20.2l-8.1-6.8c4.2-4,5.6-7,5.7-11.9l-6.5,0V40.3h18.2V57.2z" />
	  <rect x="0" y="9.8" width="18" height="18.3" />
        <animateMotion dur="20s" values="673,521; 891,180; 738,351; 640,700; 640,1000;" repeatCount="1" restart="always"/>
  </g>
  <g fill="#906fd3" transform="scale(4 4)">
		<path d="M18,57.2c0,8.2-1.9,14.4-9.3,20.2l-8.1-6.8c4.2-4,5.6-7,5.7-11.9l-6.5,0V40.3h18.2V57.2z" />
	  <rect x="0" y="9.8" width="18" height="18.3" />
        <animateMotion dur="20s" values="643,192; 329,328; 453,415; 660,700; 660,1000;" repeatCount="1" restart="always"/>
  </g>
  <g fill="#8870d7" transform="scale(4 4)">
		<path d="M18,57.2c0,8.2-1.9,14.4-9.3,20.2l-8.1-6.8c4.2-4,5.6-7,5.7-11.9l-6.5,0V40.3h18.2V57.2z" />
	  <rect x="0" y="9.8" width="18" height="18.3" />
        <animateMotion dur="20s" values="614,186; 58,235; 814,237; 680,700; 680,1000;" repeatCount="1" restart="always"/>
  </g>
  <g fill="#7f70db" transform="scale(4 4)">
		<path d="M18,57.2c0,8.2-1.9,14.4-9.3,20.2l-8.1-6.8c4.2-4,5.6-7,5.7-11.9l-6.5,0V40.3h18.2V57.2z" />
	  <rect x="0" y="9.8" width="18" height="18.3" />
        <animateMotion dur="20s" values="888,109; 568,282; 488,256; 700,700; 700,1000;" repeatCount="1" restart="always"/>
  </g>
  <g fill="#7571e0" transform="scale(4 4)">
		<path d="M18,57.2c0,8.2-1.9,14.4-9.3,20.2l-8.1-6.8c4.2-4,5.6-7,5.7-11.9l-6.5,0V40.3h18.2V57.2z" />
	  <rect x="0" y="9.8" width="18" height="18.3" />
        <animateMotion dur="20s" values="553,555; 992,558; 36,461; 720,700; 720,1000;" repeatCount="1" restart="always"/>
  </g>
  <g fill="#6b71e3" transform="scale(4 4)">
		<path d="M18,57.2c0,8.2-1.9,14.4-9.3,20.2l-8.1-6.8c4.2-4,5.6-7,5.7-11.9l-6.5,0V40.3h18.2V57.2z" />
	  <rect x="0" y="9.8" width="18" height="18.3" />
        <animateMotion dur="20s" values="518,293; 347,342; 580,71; 740,700; 740,1000;" repeatCount="1" restart="always"/>
  </g>
  <g fill="#5f72e7" transform="scale(4 4)">
		<path d="M18,57.2c0,8.2-1.9,14.4-9.3,20.2l-8.1-6.8c4.2-4,5.6-7,5.7-11.9l-6.5,0V40.3h18.2V57.2z" />
	  <rect x="0" y="9.8" width="18" height="18.3" />
        <animateMotion dur="20s" values="967,11; 59,411; 984,454; 760,700; 760,1000;" repeatCount="1" restart="always"/>
  </g>
  <g fill="#5073eb" transform="scale(4 4)">
		<path d="M18,57.2c0,8.2-1.9,14.4-9.3,20.2l-8.1-6.8c4.2-4,5.6-7,5.7-11.9l-6.5,0V40.3h18.2V57.2z" />
	  <rect x="0" y="9.8" width="18" height="18.3" />
        <animateMotion dur="20s" values="309,147; 606,699; 293,134; 780,700; 780,1000;" repeatCount="1" restart="always"/>
  </g>
  <g fill="#3e73ef" transform="scale(4 4)">
		<path d="M18,57.2c0,8.2-1.9,14.4-9.3,20.2l-8.1-6.8c4.2-4,5.6-7,5.7-11.9l-6.5,0V40.3h18.2V57.2z" />
	  <rect x="0" y="9.8" width="18" height="18.3" />
        <animateMotion dur="20s" values="555,317; 46,356; 34,97; 800,700; 800,1000;" repeatCount="1" restart="always"/>
  </g>

</svg>