<svg width="100%" height="100%" style="position: fixed; top:0; left:0; z-index: 1000;" viewBox="50 250 1000 750" xmlns="http://www.w3.org/2000/svg">
  <g fill="#ff6100" transform="scale(4 4)">
		<path d="M18,57.2c0,8.2-1.9,14.4-9.3,20.2l-8.1-6.8c4.2-4,5.6-7,5.7-11.9l-6.5,0V40.3h18.2V57.2z" />
	  <rect x="0" y="9.8" width="18" height="18.3" />
        <animateMotion dur="30s" values="623,521; 824,271; 619,383; 12,245; 500,1000;" repeatCount="1"/>
  </g>
  <g fill="#fb6230" transform="scale(4 4)">
		<path d="M18,57.2c0,8.2-1.9,14.4-9.3,20.2l-8.1-6.8c4.2-4,5.6-7,5.7-11.9l-6.5,0V40.3h18.2V57.2z" />
	  <rect x="0" y="9.8" width="18" height="18.3" />
        <animateMotion dur="40s" values="559,597; 93,154; 301,465; 35,116; 500,1000;" repeatCount="1"/>
  </g>
  <g fill="#f76345" transform="scale(4 4)">
		<path d="M18,57.2c0,8.2-1.9,14.4-9.3,20.2l-8.1-6.8c4.2-4,5.6-7,5.7-11.9l-6.5,0V40.3h18.2V57.2z" />
	  <rect x="0" y="9.8" width="18" height="18.3" />
        <animateMotion dur="35s" values="591,548; 118,632; 960,108; 122,26; 500,1000;" repeatCount="1"/>
  </g>
  <g fill="#f46354" transform="scale(4 4)">
		<path d="M18,57.2c0,8.2-1.9,14.4-9.3,20.2l-8.1-6.8c4.2-4,5.6-7,5.7-11.9l-6.5,0V40.3h18.2V57.2z" />
	  <rect x="0" y="9.8" width="18" height="18.3" />
        <animateMotion dur="38s" values="215,88; 442,123; 734,232; 812,111; 500,1000;" repeatCount="1"/>
  </g>
  <g fill="#f06461" transform="scale(4 4)">
		<path d="M18,57.2c0,8.2-1.9,14.4-9.3,20.2l-8.1-6.8c4.2-4,5.6-7,5.7-11.9l-6.5,0V40.3h18.2V57.2z" />
	  <rect x="0" y="9.8" width="18" height="18.3" />
        <animateMotion dur="42s" values="265,397; 710,329; 642,88; 106,655; 500,1000;" repeatCount="1"/>
  </g>
  <g fill="#ec656b" transform="scale(4 4)">
		<path d="M18,57.2c0,8.2-1.9,14.4-9.3,20.2l-8.1-6.8c4.2-4,5.6-7,5.7-11.9l-6.5,0V40.3h18.2V57.2z" />
	  <rect x="0" y="9.8" width="18" height="18.3" />
        <animateMotion dur="32s" values="731,647; 631,28; 552,192; 682,512; 500,1000;" repeatCount="1"/>
  </g>
  <g fill="#e86575" transform="scale(4 4)">
		<path d="M18,57.2c0,8.2-1.9,14.4-9.3,20.2l-8.1-6.8c4.2-4,5.6-7,5.7-11.9l-6.5,0V40.3h18.2V57.2z" />
	  <rect x="0" y="9.8" width="18" height="18.3" />
        <animateMotion dur="40s" values="146,42; 573,109; 817,131; 660,684; 500,1000;" repeatCount="1"/>
  </g>
  <g fill="#e3667e" transform="scale(4 4)">
		<path d="M18,57.2c0,8.2-1.9,14.4-9.3,20.2l-8.1-6.8c4.2-4,5.6-7,5.7-11.9l-6.5,0V40.3h18.2V57.2z" />
	  <rect x="0" y="9.8" width="18" height="18.3" />
        <animateMotion dur="36s" values="448,274; 297,213; 923,498; 8,714; 500,1000;" repeatCount="1"/>
  </g>
  <g fill="#df6786" transform="scale(4 4)">
		<path d="M18,57.2c0,8.2-1.9,14.4-9.3,20.2l-8.1-6.8c4.2-4,5.6-7,5.7-11.9l-6.5,0V40.3h18.2V57.2z" />
	  <rect x="0" y="9.8" width="18" height="18.3" />
        <animateMotion dur="41s" values="38,301; 279,507; 612,517; 723,295; 500,1000;" repeatCount="1"/>
  </g>
  <g fill="#da678d" transform="scale(4 4)">
		<path d="M18,57.2c0,8.2-1.9,14.4-9.3,20.2l-8.1-6.8c4.2-4,5.6-7,5.7-11.9l-6.5,0V40.3h18.2V57.2z" />
	  <rect x="0" y="9.8" width="18" height="18.3" />
        <animateMotion dur="36s" values="688,647; 584,570; 745,569; 142,618; 500,1000;" repeatCount="1"/>
  </g>
  <g fill="#d66894" transform="scale(4 4)">
		<path d="M18,57.2c0,8.2-1.9,14.4-9.3,20.2l-8.1-6.8c4.2-4,5.6-7,5.7-11.9l-6.5,0V40.3h18.2V57.2z" />
	  <rect x="0" y="9.8" width="18" height="18.3" />
        <animateMotion dur="39s" values="554,219; 935,207; 594,32; 318,132; 500,1000;" repeatCount="1"/>
  </g>
  <g fill="#d1699b" transform="scale(4 4)">
		<path d="M18,57.2c0,8.2-1.9,14.4-9.3,20.2l-8.1-6.8c4.2-4,5.6-7,5.7-11.9l-6.5,0V40.3h18.2V57.2z" />
	  <rect x="0" y="9.8" width="18" height="18.3" />
        <animateMotion dur="45s" values="972,372; 177,546; 399,187; 689,625; 500,1000;" repeatCount="1"/>
  </g>
  <g fill="#cc69a1" transform="scale(4 4)">
		<path d="M18,57.2c0,8.2-1.9,14.4-9.3,20.2l-8.1-6.8c4.2-4,5.6-7,5.7-11.9l-6.5,0V40.3h18.2V57.2z" />
	  <rect x="0" y="9.8" width="18" height="18.3" />
        <animateMotion dur="43s" values="281,430; 245,183; 397,541; 521,432; 500,1000;" repeatCount="1"/>
  </g>
  <g fill="#c76aa7" transform="scale(4 4)">
		<path d="M18,57.2c0,8.2-1.9,14.4-9.3,20.2l-8.1-6.8c4.2-4,5.6-7,5.7-11.9l-6.5,0V40.3h18.2V57.2z" />
	  <rect x="0" y="9.8" width="18" height="18.3" />
        <animateMotion dur="37s" values="128,517; 662,604; 174,368; 93,458; 500,1000;" repeatCount="1"/>
  </g>
  <g fill="#c26aad" transform="scale(4 4)">
		<path d="M18,57.2c0,8.2-1.9,14.4-9.3,20.2l-8.1-6.8c4.2-4,5.6-7,5.7-11.9l-6.5,0V40.3h18.2V57.2z" />
	  <rect x="0" y="9.8" width="18" height="18.3" />
        <animateMotion dur="38s" values="253,403; 76,549; 442,557; 244,651; 500,1000;" repeatCount="1"/>
  </g>
  <g fill="#bd6bb2" transform="scale(4 4)">
		<path d="M18,57.2c0,8.2-1.9,14.4-9.3,20.2l-8.1-6.8c4.2-4,5.6-7,5.7-11.9l-6.5,0V40.3h18.2V57.2z" />
	  <rect x="0" y="9.8" width="18" height="18.3" />
        <animateMotion dur="40s" values="86,622; 9,427; 644,63; 156,235; 500,1000;" repeatCount="1"/>
  </g>
  <g fill="#b76cb7" transform="scale(4 4)">
		<path d="M18,57.2c0,8.2-1.9,14.4-9.3,20.2l-8.1-6.8c4.2-4,5.6-7,5.7-11.9l-6.5,0V40.3h18.2V57.2z" />
	  <rect x="0" y="9.8" width="18" height="18.3" />
        <animateMotion dur="41s" values="484,242; 420,533; 616,389; 277,387; 500,1000;" repeatCount="1"/>
  </g>
  <g fill="#b16cbc" transform="scale(4 4)">
		<path d="M18,57.2c0,8.2-1.9,14.4-9.3,20.2l-8.1-6.8c4.2-4,5.6-7,5.7-11.9l-6.5,0V40.3h18.2V57.2z" />
	  <rect x="0" y="9.8" width="18" height="18.3" />
        <animateMotion dur="37s" values="656,338; 843,107; 372,639; 965,680; 500,1000;" repeatCount="1"/>
  </g>
  <g fill="#ab6dc1" transform="scale(4 4)">
		<path d="M18,57.2c0,8.2-1.9,14.4-9.3,20.2l-8.1-6.8c4.2-4,5.6-7,5.7-11.9l-6.5,0V40.3h18.2V57.2z" />
	  <rect x="0" y="9.8" width="18" height="18.3" />
        <animateMotion dur="43s" values="999,716; 706,607; 999,432; 221,638; 500,1000;" repeatCount="1"/>
  </g>
  <g fill="#a56dc6" transform="scale(4 4)">
		<path d="M18,57.2c0,8.2-1.9,14.4-9.3,20.2l-8.1-6.8c4.2-4,5.6-7,5.7-11.9l-6.5,0V40.3h18.2V57.2z" />
	  <rect x="0" y="9.8" width="18" height="18.3" />
        <animateMotion dur="45s" values="427,268; 95,655; 599,298; 971,456; 500,1000;" repeatCount="1"/>
  </g>
  <g fill="#9e6eca" transform="scale(4 4)">
		<path d="M18,57.2c0,8.2-1.9,14.4-9.3,20.2l-8.1-6.8c4.2-4,5.6-7,5.7-11.9l-6.5,0V40.3h18.2V57.2z" />
	  <rect x="0" y="9.8" width="18" height="18.3" />
        <animateMotion dur="36s" values="177,642; 906,442; 226,22; 174,24; 500,1000;" repeatCount="1"/>
  </g>
  <g fill="#976fcf" transform="scale(4 4)">
		<path d="M18,57.2c0,8.2-1.9,14.4-9.3,20.2l-8.1-6.8c4.2-4,5.6-7,5.7-11.9l-6.5,0V40.3h18.2V57.2z" />
	  <rect x="0" y="9.8" width="18" height="18.3" />
        <animateMotion dur="39s" values="642,169; 673,521; 891,180; 738,351; 500,1000;" repeatCount="1"/>
  </g>
  <g fill="#906fd3" transform="scale(4 4)">
		<path d="M18,57.2c0,8.2-1.9,14.4-9.3,20.2l-8.1-6.8c4.2-4,5.6-7,5.7-11.9l-6.5,0V40.3h18.2V57.2z" />
	  <rect x="0" y="9.8" width="18" height="18.3" />
        <animateMotion dur="41s" values="382,356; 643,192; 329,328; 453,415; 500,1000;" repeatCount="1"/>
  </g>
  <g fill="#8870d7" transform="scale(4 4)">
		<path d="M18,57.2c0,8.2-1.9,14.4-9.3,20.2l-8.1-6.8c4.2-4,5.6-7,5.7-11.9l-6.5,0V40.3h18.2V57.2z" />
	  <rect x="0" y="9.8" width="18" height="18.3" />
        <animateMotion dur="39s" values="354,632; 614,186; 58,235; 814,237; 500,1000;" repeatCount="1"/>
  </g>
  <g fill="#7f70db" transform="scale(4 4)">
		<path d="M18,57.2c0,8.2-1.9,14.4-9.3,20.2l-8.1-6.8c4.2-4,5.6-7,5.7-11.9l-6.5,0V40.3h18.2V57.2z" />
	  <rect x="0" y="9.8" width="18" height="18.3" />
        <animateMotion dur="37s" values="872,325; 888,109; 568,282; 488,256; 500,1000;" repeatCount="1"/>
  </g>
  <g fill="#7571e0" transform="scale(4 4)">
		<path d="M18,57.2c0,8.2-1.9,14.4-9.3,20.2l-8.1-6.8c4.2-4,5.6-7,5.7-11.9l-6.5,0V40.3h18.2V57.2z" />
	  <rect x="0" y="9.8" width="18" height="18.3" />
        <animateMotion dur="42s" values="737,716; 553,555; 992,558; 36,461; 500,1000;" repeatCount="1"/>
  </g>
  <g fill="#6b71e3" transform="scale(4 4)">
		<path d="M18,57.2c0,8.2-1.9,14.4-9.3,20.2l-8.1-6.8c4.2-4,5.6-7,5.7-11.9l-6.5,0V40.3h18.2V57.2z" />
	  <rect x="0" y="9.8" width="18" height="18.3" />
        <animateMotion dur="45s" values="99,276; 518,293; 347,342; 580,71; 500,1000;" repeatCount="1"/>
  </g>
  <g fill="#5f72e7" transform="scale(4 4)">
		<path d="M18,57.2c0,8.2-1.9,14.4-9.3,20.2l-8.1-6.8c4.2-4,5.6-7,5.7-11.9l-6.5,0V40.3h18.2V57.2z" />
	  <rect x="0" y="9.8" width="18" height="18.3" />
        <animateMotion dur="39s" values="198,360; 967,11; 59,411; 984,454; 500,1000;" repeatCount="1"/>
  </g>
  <g fill="#5073eb" transform="scale(4 4)">
		<path d="M18,57.2c0,8.2-1.9,14.4-9.3,20.2l-8.1-6.8c4.2-4,5.6-7,5.7-11.9l-6.5,0V40.3h18.2V57.2z" />
	  <rect x="0" y="9.8" width="18" height="18.3" />
        <animateMotion dur="40s" values="633,210; 309,147; 606,699; 293,134; 500,1000;" repeatCount="1"/>
  </g>
  <g fill="#3e73ef" transform="scale(4 4)">
		<path d="M18,57.2c0,8.2-1.9,14.4-9.3,20.2l-8.1-6.8c4.2-4,5.6-7,5.7-11.9l-6.5,0V40.3h18.2V57.2z" />
	  <rect x="0" y="9.8" width="18" height="18.3" />
        <animateMotion dur="41s" values="338,183; 555,317; 46,356; 34,97; 500,1000;" repeatCount="1"/>
  </g>

</svg>